<svg width="43" height="43" viewBox="0 0 43 43" fill="none" xmlns="http://www.w3.org/2000/svg">
<g clip-path="url(#clip0_133_9294)">
<path d="M43 21.5719C43 17.4114 41.801 13.3397 39.5474 9.84742C37.2939 6.35509 34.0818 3.59112 30.2984 1.88855C26.515 0.185983 22.3216 -0.382534 18.2235 0.251493C14.1254 0.885521 10.2975 2.69504 7.20096 5.46202C4.10442 8.229 1.8714 11.8354 0.770956 15.8466C-0.329485 19.8579 -0.250386 24.1028 0.99871 28.07C2.24781 32.0372 4.6136 35.5573 7.81105 38.2062C11.0085 40.8551 14.9012 42.5199 19.02 42.9998V26.323H15.4812V20.3958H19.02V16.837C19.02 12.0005 21.0182 9.11814 26.6948 9.11814H31.422V15.0454H28.4703C26.2596 15.0454 26.1138 15.8741 26.1138 17.4199V20.3876H31.4665L30.8389 26.3128H26.1037V42.6382C30.8906 41.5834 35.175 38.9201 38.2476 35.0891C41.3203 31.2582 42.9969 26.4893 43 21.5719Z" fill="black"/>
</g>
<defs>
<clipPath id="clip0_133_9294">
<rect width="43" height="43" fill="white"/>
</clipPath>
</defs>
</svg>
