<svg width="39" height="38" viewBox="0 0 39 38" fill="none" xmlns="http://www.w3.org/2000/svg">
<path d="M30 23C30 31.2843 23.2843 38 15 38C6.71573 38 0 31.2843 0 23C0 14.7157 6.71573 8 15 8C23.2843 8 30 14.7157 30 23Z" fill="#B711B1" fill-opacity="0.5"/>
<g clip-path="url(#clip0_6657_82)">
<path d="M15.6447 24.324C16.9363 22.46 18.2018 20.5732 19.5282 18.731C22.631 14.423 26.0805 10.4211 29.9769 6.83239C30.8358 6.04078 31.8182 5.3875 32.7511 4.6804C33.3457 4.22967 34.0442 4.16938 34.75 4.18555C35.8604 4.2105 36.9704 4.2416 38.081 4.29582C38.2513 4.30431 38.4985 4.40926 38.5615 4.53955C38.6673 4.76721 38.493 4.97638 38.2975 5.11649C37.5495 5.6583 36.781 6.17387 36.0505 6.73665C33.5417 8.67313 31.3094 10.9154 29.1477 13.2334C25.0402 17.6415 21.506 22.4844 18.4577 27.699C18.1207 28.275 17.7078 28.8056 17.3762 29.3839C16.9762 30.082 16.3718 30.3393 15.635 30.2621C14.7374 30.167 13.8464 30.009 12.9553 29.8635C12.4954 29.7885 12.1874 29.509 11.9893 29.0764C11.5221 28.0529 11.0831 27.0122 10.5483 26.026C9.80939 24.6629 8.98792 23.3454 8.21112 22.0047C8.00205 21.6448 7.80015 21.2783 7.62712 20.899C7.41893 20.4433 7.50709 20.0014 7.85299 19.6541C8.6473 18.8562 9.61924 18.4052 10.727 18.3419C11.3314 18.3072 11.8283 18.6633 12.2963 19.0197C13.4274 19.8845 14.1637 21.0563 14.762 22.3325C15.0737 22.9973 15.3583 23.6752 15.6447 24.324Z" fill="white"/>
</g>
<defs>
<clipPath id="clip0_6657_82">
<rect width="28.2791" height="29.1628" fill="white" transform="translate(10.7041) rotate(8.91202)"/>
</clipPath>
</defs>
</svg>
