<svg width="43" height="43" viewBox="0 0 43 43" fill="none" xmlns="http://www.w3.org/2000/svg">
<g clip-path="url(#clip0_133_9287)">
<path d="M22.4715 10.1895C16.3778 10.1895 11.4219 15.109 11.4219 21.1541C11.4203 23.467 12.158 25.7198 13.5273 27.5838L12.1467 31.6631L16.3981 30.3128C18.2009 31.5009 20.3124 32.1344 22.4715 32.1348C28.5652 32.1348 33.5232 27.2174 33.5232 21.1723C33.5232 15.1272 28.5652 10.1895 22.4715 10.1895ZM28.9215 25.6788C28.6523 26.4238 27.3363 27.1445 26.7452 27.1971C26.154 27.2498 26.1541 27.679 22.8805 26.3995C19.6069 25.12 17.5378 21.7857 17.3759 21.5731C17.2139 21.3605 16.06 19.8402 16.06 18.2671C16.0514 17.7686 16.1473 17.2738 16.3415 16.8146C16.5357 16.3554 16.824 15.942 17.1876 15.6009C17.2955 15.4779 17.4276 15.3785 17.5756 15.3088C17.7237 15.2391 17.8845 15.2007 18.048 15.196C18.2626 15.196 18.4772 15.2243 18.6554 15.2243C18.8335 15.2243 19.1109 15.117 19.3801 15.7568C19.6494 16.3965 20.2932 17.9695 20.3721 18.1295C20.4235 18.2131 20.453 18.3082 20.458 18.4062C20.4629 18.5042 20.4432 18.6019 20.4005 18.6903C20.3188 18.882 20.2104 19.0613 20.0786 19.2227C19.9166 19.4089 19.7405 19.6397 19.5947 19.7835C19.4489 19.9272 19.2647 20.1155 19.453 20.4354C19.9373 21.2577 20.5411 22.0034 21.2447 22.6481C22.0102 23.323 22.887 23.8601 23.836 24.2353C24.1579 24.3952 24.3462 24.3689 24.5345 24.1543C24.7227 23.9397 25.3442 23.221 25.5467 22.9012C25.7491 22.5813 25.9759 22.6339 26.2715 22.7412C26.567 22.8485 28.1502 23.6219 28.4721 23.7818C28.794 23.9418 29.0086 24.0207 29.0794 24.1543C29.1503 24.2879 29.1887 24.9317 28.9215 25.6788Z" fill="black"/>
<path d="M21.5 0C17.2477 0 13.0909 1.26096 9.55525 3.62341C6.01959 5.98586 3.26389 9.3437 1.63661 13.2723C0.00932562 17.2009 -0.41646 21.5239 0.413123 25.6945C1.24271 29.865 3.29039 33.696 6.29722 36.7028C9.30405 39.7096 13.135 41.7573 17.3056 42.5869C21.4762 43.4165 25.7991 42.9907 29.7277 41.3634C33.6563 39.7361 37.0142 36.9804 39.3766 33.4448C41.7391 29.9091 43 25.7523 43 21.5C43 15.7978 40.7348 10.3292 36.7028 6.29721C32.6708 2.26518 27.2022 0 21.5 0ZM22.4718 34.1955C20.2515 34.1996 18.0663 33.6425 16.1189 32.576L8.83081 34.8879L11.2035 27.8913C9.96764 25.8623 9.31547 23.5316 9.31872 21.1558C9.31872 13.9527 15.2018 8.11413 22.4616 8.11413C29.7214 8.11413 35.6046 13.9527 35.6046 21.1558C35.6046 28.3589 29.7316 34.1955 22.4718 34.1955Z" fill="black"/>
</g>
<defs>
<clipPath id="clip0_133_9287">
<rect width="43" height="43" fill="white"/>
</clipPath>
</defs>
</svg>
