<svg width="72" height="69" viewBox="0 0 72 69" fill="none" xmlns="http://www.w3.org/2000/svg">
<g clip-path="url(#clip0_133_1457)">
<path d="M72 59.2585C71.6651 59.8138 71.1783 59.9971 70.5284 59.979C69.8784 59.961 69.0427 59.6847 68.6403 60.0998C68.238 60.5149 68.5559 61.3326 68.5165 61.974C68.5095 62.0892 68.5165 62.2058 68.5165 62.321C68.4743 62.9541 68.0396 63.3969 67.4642 63.3983C66.8888 63.3997 66.4301 62.9555 66.3992 62.3238C66.3646 61.7227 66.3646 61.1201 66.3992 60.519C66.4315 60.0429 66.243 59.929 65.7998 59.9526C65.216 59.986 64.6279 59.9748 64.044 59.9526C63.3814 59.929 62.9481 59.5195 62.9312 58.9392C62.9129 58.3353 63.3659 57.8869 64.0567 57.8674C64.6884 57.848 65.3229 57.8466 65.9546 57.8674C66.2894 57.8785 66.4076 57.7689 66.3963 57.4343C66.3752 56.8346 66.3795 56.2321 66.3963 55.6295C66.4146 54.8993 66.855 54.419 67.4754 54.4245C68.0959 54.4301 68.5081 54.9021 68.5222 55.6476C68.532 56.2251 68.5405 56.804 68.5222 57.3815C68.5081 57.7342 68.6122 57.8855 68.9935 57.8661C69.507 57.8383 70.0275 57.8938 70.541 57.8508C71.1938 57.7953 71.6806 58.0049 72.0154 58.5588L72 59.2585Z" fill="white"/>
<path d="M7.49929e-05 5.41425C0.395409 4.77564 1.0088 4.7104 1.69677 4.72011C3.48351 4.74649 3.48352 4.72845 3.48492 2.99589C3.48492 2.81264 3.48492 2.62661 3.48492 2.44058C3.51588 1.74644 3.93512 1.30636 4.5457 1.31191C5.15629 1.31746 5.58539 1.77837 5.6065 2.46002C5.62619 3.05836 5.63041 3.65949 5.6065 4.26477C5.59243 4.62156 5.69935 4.7576 6.0778 4.73955C6.66025 4.71179 7.24693 4.72289 7.83079 4.73955C8.57643 4.75343 9.06321 5.16853 9.07306 5.77798C9.0829 6.38743 8.62005 6.82057 7.86737 6.83862C7.28351 6.8525 6.69683 6.86361 6.11438 6.83862C5.70216 6.8178 5.5868 6.97745 5.6065 7.35783C5.63323 7.88677 5.61775 8.41849 5.6065 8.9502C5.59806 9.79149 5.18443 10.2857 4.51757 10.2788C3.87322 10.2788 3.48773 9.79842 3.47929 8.98906C3.47226 8.43375 3.46241 7.87844 3.47929 7.32313C3.49195 6.97051 3.37377 6.81641 2.99954 6.83584C2.55637 6.85944 2.10758 6.81087 1.66723 6.84835C1.00459 6.90527 0.431995 6.77199 -0.00976562 6.25277L7.49929e-05 5.41425Z" fill="white"/>
<path d="M40.0774 60.73C40.0774 62.1183 40.1267 63.5066 40.0648 64.8949C39.9902 66.5386 39.2207 67.8214 37.7083 68.5724C36.3591 69.2416 35.0183 69.1277 33.7845 68.2781C32.5506 67.4285 31.9372 66.2096 31.9274 64.7283C31.9105 62.0225 31.9063 59.314 31.9358 56.611C31.9429 56.0557 31.7712 55.9169 31.2324 55.928C29.4288 55.9599 27.6237 55.9516 25.8201 55.9363C23.4622 55.9169 21.8949 54.2871 21.9019 51.8867C21.9104 49.5433 23.503 47.9052 25.8131 47.8885C27.642 47.876 29.471 47.8719 31.2999 47.8885C31.7712 47.8885 31.9457 47.7941 31.9415 47.286C31.9161 44.558 31.9204 41.8287 31.9415 39.0952C31.9415 38.6898 31.8008 38.5399 31.4237 38.4385C23.5818 36.3408 18.5803 31.4139 16.7218 23.6132C14.1753 12.9234 21.6585 2.04908 32.6477 0.280419C38.4032 -0.646948 43.6383 0.642768 48.2303 4.17731C52.2062 7.23152 54.6513 11.3005 55.4856 16.197C56.4578 21.9 55.0748 27.0963 51.4507 31.6415C48.6988 35.0914 45.1 37.3335 40.7767 38.3983C40.2435 38.5371 40.0732 38.7176 40.0732 39.2604C40.1023 41.9185 40.1023 44.5775 40.0732 47.2374C40.0732 47.7691 40.2266 47.8941 40.7429 47.8857C42.5479 47.8552 44.3515 47.8663 46.1566 47.876C48.5145 47.8885 50.1113 49.5211 50.1113 51.902C50.1113 54.2829 48.5398 55.9086 46.1636 55.928C44.36 55.9419 42.555 55.9488 40.7514 55.928C40.2449 55.9197 40.0563 56.028 40.0732 56.5694C40.114 57.9577 40.0859 59.3459 40.0859 60.7342L40.0774 60.73ZM47.7393 19.5219C47.759 17.9965 47.4702 16.4825 46.89 15.0685C46.3097 13.6545 45.4495 12.3689 44.3597 11.2868C43.2699 10.2048 41.9725 9.34795 40.5432 8.76653C39.1139 8.18511 37.5814 7.89075 36.0355 7.90066C29.5216 7.88816 24.2346 13.0289 24.205 19.4233C24.1755 25.8177 29.4513 31.0515 35.9694 31.1043C42.4874 31.157 47.8251 25.8358 47.7379 19.5219H47.7393Z" fill="white"/>
<path d="M63.9945 3.40681C64.5994 3.40681 65.037 3.85244 65.0665 4.54519C65.0932 5.14493 65.0918 5.74744 65.0665 6.34995C65.0524 6.70951 65.172 6.84001 65.5434 6.82474C66.1526 6.79975 66.7632 6.80392 67.3724 6.82474C68.0758 6.84696 68.5091 7.26066 68.5091 7.88122C68.5091 8.50178 68.0997 8.90021 67.3696 8.9252C66.8073 8.95585 66.2436 8.95585 65.6813 8.9252C65.1692 8.88772 65.0341 9.09179 65.0637 9.55964C65.0975 10.09 65.0848 10.6231 65.0637 11.1548C65.0384 11.9044 64.6205 12.3556 63.9846 12.357C63.3487 12.3584 62.9365 11.9114 62.9098 11.1534C62.8915 10.5981 62.8858 10.0428 62.9098 9.48746C62.9295 9.07098 62.7986 8.90299 62.3569 8.9252C61.773 8.95574 61.1849 8.94742 60.5997 8.9252C59.8709 8.89744 59.4601 8.50871 59.4629 7.87705C59.4657 7.24538 59.8976 6.84834 60.6081 6.82613C61.2173 6.8067 61.8279 6.80253 62.4371 6.82613C62.8127 6.8414 62.9238 6.69842 62.9112 6.34441C62.8901 5.74467 62.8873 5.14216 62.9112 4.53965C62.9506 3.84274 63.3867 3.40404 63.9945 3.40681Z" fill="white"/>
<path d="M14.7709 27.7724C14.7568 28.3625 14.3572 28.7651 13.6763 28.8039C13.0915 28.8352 12.5054 28.8352 11.9205 28.8039C11.4774 28.7817 11.279 28.9067 11.3128 29.3787C11.3479 29.884 11.3282 30.3949 11.3128 30.9058C11.2945 31.7748 10.909 32.2246 10.2112 32.2094C9.54852 32.1955 9.17289 31.7415 9.16023 30.9224C9.15179 30.3907 9.13912 29.859 9.16023 29.3287C9.17852 28.9483 9.06597 28.7859 8.65375 28.8067C8.091 28.8359 7.52825 28.8247 6.96549 28.8067C6.15654 28.7873 5.69929 28.3777 5.70914 27.7211C5.72321 27.0894 6.17342 26.7035 6.9458 26.6854C7.50855 26.6715 8.0713 26.6632 8.63405 26.6854C9.01954 26.7035 9.18414 26.5938 9.16163 26.1856C9.13068 25.6095 9.13912 25.0306 9.16163 24.4545C9.18555 23.7062 9.6034 23.2758 10.259 23.2869C10.8921 23.2953 11.2734 23.6951 11.3057 24.4281C11.3296 24.9834 11.3367 25.5387 11.3057 26.094C11.2804 26.5355 11.4141 26.7201 11.8896 26.691C12.4739 26.6597 13.0596 26.6597 13.644 26.691C14.3587 26.7271 14.7835 27.1574 14.7709 27.7724Z" fill="white"/>
<path d="M60.7594 42.6228C60.772 43.2378 60.3373 43.6751 59.6423 43.7015C59.0346 43.7237 58.424 43.7279 57.8134 43.7015C57.4068 43.6834 57.2816 43.8306 57.2999 44.2179C57.328 44.7732 57.321 45.3285 57.2999 45.8838C57.2759 46.671 56.8356 47.1541 56.1955 47.1333C55.5778 47.1097 55.1684 46.6335 55.1487 45.8838C55.1361 45.3535 55.122 44.8204 55.1487 44.2901C55.1755 43.857 55.0629 43.6626 54.5776 43.6987C54.0148 43.7403 53.452 43.7181 52.8893 43.7056C52.138 43.6876 51.6934 43.2753 51.7033 42.6283C51.7131 41.9814 52.1253 41.6302 52.8611 41.6135C53.4464 41.601 54.0331 41.5913 54.6169 41.6135C55.0066 41.6316 55.1642 41.5149 55.1445 41.111C55.115 40.5348 55.1248 39.9545 55.1445 39.3784C55.1642 38.6357 55.5849 38.1748 56.2151 38.1692C56.8454 38.1637 57.2675 38.6176 57.2928 39.3687C57.3125 39.9684 57.3097 40.5695 57.2928 41.1734C57.2844 41.5025 57.418 41.6218 57.7487 41.6135C58.4043 41.5982 59.0599 41.5941 59.7183 41.6135C60.35 41.6441 60.7439 42.0536 60.7594 42.6228Z" fill="white"/>
<path d="M4.63431 61.9226C4.284 61.9226 3.93087 61.942 3.58197 61.9226C3.30861 61.9192 3.04734 61.8109 2.85345 61.6207C2.65956 61.4306 2.54827 61.1734 2.54315 60.9037C2.53803 60.634 2.63949 60.3729 2.82602 60.1757C3.01256 59.9785 3.26955 59.8607 3.54259 59.8471C4.17345 59.8053 4.80632 59.8015 5.43765 59.836C5.88223 59.8582 6.07638 59.7472 6.03839 59.2696C5.99619 58.7407 6.02291 58.2076 6.02994 57.6759C6.0412 56.8762 6.45201 56.4056 7.1048 56.4167C7.7576 56.4278 8.14589 56.9137 8.15574 57.712C8.15574 58.2437 8.18811 58.7782 8.14731 59.3057C8.11214 59.7541 8.288 59.861 8.71006 59.836C9.29392 59.8041 9.88199 59.8124 10.4658 59.836C11.1552 59.861 11.6251 60.3011 11.6322 60.8883C11.6392 61.4756 11.1777 61.9101 10.4785 61.9309C9.94105 61.964 9.40196 61.9617 8.86481 61.924C8.25001 61.8629 8.09946 62.1072 8.15152 62.6639C8.18259 63.1725 8.18259 63.6825 8.15152 64.191C8.13182 64.9213 7.69569 65.3836 7.06118 65.3725C6.45482 65.3613 6.04683 64.9143 6.03135 64.2132C6.0018 63.6829 6.0018 63.1513 6.03135 62.6209C6.082 62.0656 5.89066 61.8587 5.32791 61.9337C5.09369 61.949 4.85869 61.949 4.62447 61.9337L4.63431 61.9226Z" fill="white"/>
</g>
<defs>
<clipPath id="clip0_133_1457">
<rect width="72" height="69" fill="white"/>
</clipPath>
</defs>
</svg>
