<svg width="72" height="77" viewBox="0 0 72 77" fill="none" xmlns="http://www.w3.org/2000/svg">
<g clip-path="url(#clip0_133_1448)">
<path d="M34.506 0C37.2037 2.68878 39.8873 5.39164 42.6131 8.05229C43.1345 8.56071 43.1386 8.82396 42.6131 9.33237C40.0584 11.8122 37.5379 14.3281 35.0274 16.8501C34.6248 17.252 34.3953 17.3505 33.9725 16.8802C33.2699 16.0965 32.5109 15.361 31.7399 14.6456C31.3634 14.298 31.3171 14.0749 31.7197 13.7031C32.5492 12.9375 33.3303 12.1196 34.1235 11.3198C34.2946 11.149 34.4516 10.9641 34.7274 10.6707C32.9894 10.6499 31.2545 10.8245 29.5555 11.1912C23.212 12.4402 17.4178 15.6358 12.9823 20.3317C8.54673 25.0276 5.69147 30.9892 4.81535 37.3837C4.6289 38.5737 4.534 39.7763 4.53149 40.9808C4.53149 41.4149 4.38251 41.5415 3.96376 41.5314C2.86053 41.5093 1.74925 41.4952 0.652056 41.5314C0.102454 41.5515 -0.016329 41.3506 -0.00626302 40.8422C0.0698083 36.8603 0.818492 32.9199 2.20825 29.1868C4.14665 23.9208 7.33297 19.2014 11.4951 15.4314C16.657 10.723 22.6845 7.73879 29.6139 6.58933C31.1362 6.35053 32.6695 6.18821 34.208 6.10301C33.3323 5.22885 32.6096 4.44917 31.8244 3.7398C31.3654 3.32583 31.3432 3.07865 31.8063 2.63052C32.684 1.78249 33.6182 0.982671 34.361 0H34.506Z" fill="white"/>
<path d="M20.4141 45.8861C20.4604 41.5214 21.9501 37.9363 23.9895 34.5522C26.9167 29.7012 30.6995 25.5716 34.9393 21.8378C35.1909 21.6168 35.3721 21.4098 35.7446 21.7393C40.6205 26.0961 44.9831 30.8708 47.9828 36.7427C49.5048 39.7208 50.4389 42.8537 50.3423 46.2559C50.1409 53.0743 44.6469 59.3019 37.8906 60.2966C29.3627 61.5526 21.9381 56.1409 20.563 47.6565C20.4483 46.9673 20.4362 46.2599 20.4141 45.8861Z" fill="white"/>
<path d="M66.9913 58.062C68.1852 57.7365 69.224 57.4772 70.2487 57.1637C70.756 57.009 70.9694 57.1637 71.0882 57.652C71.3479 58.7452 71.6257 59.8364 71.9499 60.9135C72.0787 61.3456 71.966 61.4662 71.5472 61.5747C67.9436 62.5312 64.3433 63.5025 60.7464 64.4885C60.2975 64.6091 60.07 64.5106 59.9411 64.0324C59.0016 60.458 58.0434 56.8864 57.0663 53.3174C56.9274 52.8131 57.0401 52.6282 57.5454 52.5136C58.6191 52.2725 59.6841 51.9931 60.7404 51.6756C61.2054 51.535 61.3926 51.5912 61.5154 52.1017C61.8396 53.4561 62.2342 54.7945 62.6509 56.3217C62.9247 55.7992 63.1321 55.4194 63.3213 55.0316C65.721 50.1082 66.8303 44.8934 66.3612 39.4536C65.4613 28.9798 60.5874 20.823 51.6246 15.1943C51.0871 14.8566 50.9381 14.6255 51.3246 14.0508C51.8858 13.1909 52.3999 12.3014 52.8647 11.3861C53.1305 10.8837 53.3801 10.8556 53.8512 11.143C58.8842 14.2196 62.975 18.2447 65.9968 23.3168C68.6849 27.7957 70.3403 32.8158 70.8426 38.0127C71.5481 44.6999 70.2957 51.4479 67.237 57.439C67.1725 57.5938 67.1162 57.7565 66.9913 58.062Z" fill="white"/>
<path d="M5.37945 60.5418C5.07143 61.6852 4.7755 62.7382 4.50976 63.7993C4.40306 64.2233 4.24602 64.3479 3.78903 64.2012C2.71398 63.8696 1.62283 63.5983 0.527646 63.319C0.139099 63.2245 -0.0239674 63.118 0.102864 62.6699C1.08933 59.0782 2.05701 55.4817 3.0059 51.8806C3.13273 51.4023 3.37431 51.344 3.76689 51.4485C7.37051 52.4158 10.9735 53.3804 14.5757 54.3423C14.9321 54.4367 15.0609 54.5553 14.9401 54.9572C14.6039 56.0826 14.31 57.222 14.0241 58.3614C13.9255 58.7513 13.7544 58.8176 13.3779 58.7111C11.9868 58.3091 10.5856 57.9555 9.03945 57.5435C9.82294 58.92 10.74 60.2164 11.7774 61.4139C16.8547 67.3943 23.311 70.9693 31.0497 72.1208C37.804 73.1256 44.2221 71.9078 50.2355 68.6744C50.8193 68.3609 51.1173 68.3348 51.4434 68.9759C51.9145 69.9143 52.4681 70.8126 53.0178 71.7089C53.2513 72.0887 53.2392 72.2876 52.8164 72.5127C48.8202 74.6991 44.5865 76.156 40.0528 76.7086C32.6422 77.6109 25.6221 76.3067 19.0088 72.8905C13.7624 70.1836 9.50249 66.3353 6.17064 61.4661C5.95523 61.1788 5.81833 60.813 5.37945 60.5418Z" fill="white"/>
</g>
<defs>
<clipPath id="clip0_133_1448">
<rect width="72" height="77" fill="white"/>
</clipPath>
</defs>
</svg>
