<svg width="43" height="43" viewBox="0 0 43 43" fill="none" xmlns="http://www.w3.org/2000/svg">
<g clip-path="url(#clip0_133_9290)">
<path d="M21.395 17.1816C20.5541 17.1816 19.7321 17.431 19.033 17.8981C18.3339 18.3653 17.7889 19.0293 17.4672 19.8061C17.1454 20.583 17.0612 21.4378 17.2253 22.2625C17.3893 23.0872 17.7942 23.8447 18.3888 24.4393C18.9833 25.0338 19.7409 25.4387 20.5655 25.6028C21.3902 25.7668 22.2451 25.6826 23.0219 25.3608C23.7988 25.0391 24.4627 24.4942 24.9299 23.795C25.397 23.0959 25.6464 22.2739 25.6464 21.4331C25.6464 20.3055 25.1985 19.2241 24.4012 18.4269C23.6039 17.6296 22.5225 17.1816 21.395 17.1816Z" fill="black"/>
<path d="M31.7537 15.7888C31.7516 14.5386 31.2538 13.3402 30.3696 12.4564C29.4854 11.5725 28.2869 11.0753 27.0367 11.0737H15.7502C14.5002 11.0753 13.3018 11.5726 12.4179 12.4565C11.5341 13.3404 11.0368 14.5387 11.0352 15.7888V27.0752C11.0368 28.3252 11.5341 29.5236 12.4179 30.4075C13.3018 31.2914 14.5002 31.7886 15.7502 31.7903H27.0367C28.287 31.7892 29.4859 31.2922 30.3702 30.4082C31.2545 29.5243 31.7521 28.3256 31.7537 27.0752V15.7888ZM21.3944 27.9356C20.1101 27.938 18.854 27.5594 17.785 26.8476C16.716 26.1358 15.8822 25.1228 15.3892 23.9369C14.8961 22.751 14.766 21.4455 15.0152 20.1856C15.2644 18.9258 15.8818 17.7681 16.7892 16.8593C17.6967 15.9504 18.8533 15.3312 20.1128 15.08C21.3723 14.8288 22.678 14.957 23.8647 15.4482C25.0513 15.9394 26.0656 16.7716 26.7791 17.8394C27.4925 18.9073 27.8732 20.1629 27.8728 21.4472C27.8706 23.1656 27.1877 24.8132 25.9736 26.0293C24.7594 27.2454 23.1129 27.9308 21.3944 27.9356ZM29.3162 15.8596C29.1658 16.0194 28.9847 16.1473 28.7839 16.2358C28.5831 16.3243 28.3665 16.3717 28.1471 16.3749C27.9276 16.3782 27.7097 16.3374 27.5063 16.2549C27.3029 16.1725 27.1182 16.05 26.963 15.8948C26.8078 15.7396 26.6853 15.5549 26.6029 15.3515C26.5204 15.1481 26.4796 14.9302 26.4829 14.7107C26.4862 14.4913 26.5335 14.2747 26.622 14.0739C26.7105 13.8731 26.8384 13.6921 26.9982 13.5416C27.3086 13.2492 27.7207 13.0893 28.1471 13.0956C28.5734 13.102 28.9805 13.2742 29.2821 13.5758C29.5836 13.8773 29.7558 14.2844 29.7622 14.7107C29.7685 15.1371 29.6086 15.5492 29.3162 15.8596Z" fill="black"/>
<path d="M21.5 -0.00195312C17.2477 -0.00195312 13.0909 1.259 9.55525 3.62145C6.01959 5.9839 3.26388 9.34174 1.6366 13.2704C0.00931633 17.199 -0.416456 21.5219 0.413126 25.6925C1.24271 29.8631 3.29038 33.694 6.29721 36.7008C9.30404 39.7077 13.135 41.7553 17.3056 42.5849C21.4762 43.4145 25.7991 42.9887 29.7277 41.3615C33.6563 39.7342 37.0141 36.9785 39.3766 33.4428C41.739 29.9071 43 25.7503 43 21.498C43 15.7959 40.7348 10.3273 36.7028 6.29525C32.6708 2.26322 27.2022 -0.00195312 21.5 -0.00195312ZM33.987 27.0775C33.9849 28.9201 33.252 30.6866 31.949 31.9896C30.6461 33.2925 28.8796 34.0254 27.037 34.0276H15.7505C13.9079 34.0254 12.1413 33.2925 10.8384 31.9896C9.53549 30.6866 8.80259 28.9201 8.80044 27.0775V15.789C8.80259 13.9464 9.53549 12.1799 10.8384 10.877C12.1413 9.57403 13.9079 8.84111 15.7505 8.83896H27.037C28.8796 8.84111 30.6461 9.57403 31.949 10.877C33.252 12.1799 33.9849 13.9464 33.987 15.789V27.0775Z" fill="black"/>
</g>
<defs>
<clipPath id="clip0_133_9290">
<rect width="43" height="43" fill="white"/>
</clipPath>
</defs>
</svg>
