<svg width="65" height="79" viewBox="0 0 65 79" fill="none" xmlns="http://www.w3.org/2000/svg">
<g clip-path="url(#clip0_133_1465)">
<path d="M30.6399 78.9982C29.5481 78.6533 28.4108 78.5566 27.3153 78.2245C20.415 76.1352 15.3944 69.8875 14.7939 62.6654C14.661 61.0779 14.8193 59.5232 14.9758 57.9576C15.0117 57.9006 15.0405 57.8393 15.0614 57.7752C16.7101 49.7465 23.1172 44.0644 31.295 43.3893L32.4905 43.4167C32.4905 47.3264 32.4905 51.2373 32.4905 55.1495C32.4825 55.18 32.4825 55.212 32.4905 55.2425C31.1676 54.4251 29.761 54.1641 28.2361 54.5583C24.4857 55.5326 22.6914 60.3845 25.9669 63.6616C27.9867 65.6477 30.1128 67.522 32.3359 69.2762L32.4869 69.4222C32.4869 72.6117 32.4869 75.8013 32.4869 78.9909L30.6399 78.9982Z" fill="white"/>
<path d="M32.502 55.1567C32.502 51.2446 32.502 47.3337 32.502 43.424C33.2952 43.3781 34.0911 43.4154 34.8767 43.5353C40.5451 44.3747 44.8286 47.296 47.8202 52.1661C48.9121 53.9579 49.5435 55.9322 50.0239 57.9613C50.3696 60.2242 50.3333 62.5293 49.9166 64.7802C48.55 71.8052 42.5158 77.657 35.4881 78.7482C35.1133 78.8066 34.6983 78.7391 34.3635 78.9982H32.5038C32.5038 75.8086 32.5038 72.619 32.5038 69.4295C33.2317 68.8255 33.9832 68.2361 34.7002 67.6048C36.3725 66.1596 38.1285 64.8002 39.5297 63.0723C40.2163 62.2391 40.6301 61.214 40.7148 60.1365C40.7994 59.059 40.5508 57.9815 40.0028 57.0508C38.8655 55.1002 36.7401 54.1203 34.4855 54.4652C33.774 54.5765 33.1716 54.9578 32.502 55.1567Z" fill="white"/>
<path d="M31.0424 39.5357C21.0904 40.3568 13.293 47.2669 11.2877 57.0399C11.2624 57.1153 11.2275 57.187 11.1839 57.2534C8.57204 55.0078 6.33365 52.3592 4.55292 49.4073C2.36356 45.8186 0.921861 41.8225 0.314806 37.6599C0.187426 36.784 -0.0309724 35.921 0.00724152 35.0287C2.96245 35.0287 5.9177 35.0105 8.8729 35.0488C9.56439 35.0579 9.74816 34.828 9.71723 34.1729C9.66809 33.1237 9.66628 32.0709 9.71723 31.0217C9.74998 30.3557 9.54801 30.144 8.86744 30.1531C5.91223 30.1896 2.95703 30.1695 0 30.1695C0.211981 26.7324 0.994268 23.3547 2.31466 20.1757C3.56136 17.1324 5.25345 14.2924 7.33521 11.7493C9.86863 8.66867 12.9454 6.08143 16.4119 4.1166C19.234 2.49242 22.2887 1.31383 25.4686 0.622316C26.9845 0.299346 28.5039 -0.0491655 30.0725 0.0110493C30.0725 2.9634 30.0998 5.91758 30.0579 8.87176C30.047 9.60164 30.2781 9.82241 30.9678 9.75125C31.4758 9.72479 31.9847 9.72479 32.4927 9.75125V25.6388C31.49 25.6899 30.5402 25.9819 29.5939 26.2866C26.3706 23.0301 23.1503 19.7712 19.9331 16.5099C19.6401 16.2125 19.4891 16.3785 19.2853 16.5847C18.4518 17.4295 17.6348 18.2926 16.765 19.0955C16.3064 19.5188 16.3519 19.767 16.7759 20.1903C19.7638 23.1518 22.7245 26.1388 25.6925 29.1149C25.8744 29.2973 26.0418 29.54 26.353 29.5309C25.7348 30.8099 25.5236 32.2485 25.7478 33.6519C25.9721 35.0554 26.621 36.3558 27.6068 37.3771C28.5785 38.3898 29.8159 38.8624 31.0369 39.4043L31.0424 39.5357Z" fill="white"/>
<path d="M32.4946 25.6314V9.74383L32.5055 9.7329C33.0143 9.71219 33.5239 9.71705 34.0323 9.74749C34.7274 9.82047 34.9548 9.59787 34.9421 8.86617C34.9003 5.91017 34.9275 2.95417 34.9294 0C38.5506 0.109481 41.9789 1.06925 45.2889 2.46514C49.3963 4.19331 53.0929 6.77266 56.1363 10.034C60.4744 14.6559 63.3077 20.0807 64.5069 26.3339C64.7792 27.5947 64.9424 28.8768 64.9946 30.1658C62.0139 30.1658 59.0314 30.1822 56.0507 30.153C55.4411 30.153 55.2573 30.3355 55.281 30.9376C55.3246 32.0124 55.3283 33.0926 55.281 34.1673C55.2518 34.8206 55.4266 35.0541 56.1217 35.045C59.0751 35.0067 62.0303 35.0268 64.9855 35.0268C64.8344 38.1944 64.092 41.2435 62.9838 44.194C61.084 49.2539 57.9978 53.4999 54.0144 57.1274C53.9506 57.1764 53.8831 57.2204 53.8125 57.2588C53.2284 54.79 52.4695 52.3869 51.1321 50.2064C47.4926 44.2816 42.2792 40.718 35.3806 39.7034C34.4246 39.5592 33.4562 39.5139 32.4909 39.5684L31.0352 39.5356V39.3914L32.4764 39.3768C34.802 39.4206 36.6508 38.4645 38.0046 36.6051C39.5641 34.4666 39.6424 32.1182 38.7962 29.6841C39.0164 29.4888 39.2493 29.3045 39.4586 29.0965C42.1081 26.4452 44.6939 23.7246 47.4216 21.1555C49.7763 18.9366 52 16.5937 54.3365 14.3585C54.8115 13.906 54.7824 13.6286 54.322 13.2107C53.4722 12.4243 52.6697 11.585 51.8599 10.7529C51.6179 10.5029 51.4559 10.4007 51.1502 10.7054C50.3113 11.5393 49.4142 12.3148 48.5772 13.1505C44.8929 16.8267 41.2146 20.5113 37.5424 24.2045C36.8418 24.907 35.9738 25.4344 35.4025 26.2701C34.4453 25.9799 33.4954 25.6661 32.4909 25.6333L32.4946 25.6314Z" fill="white"/>
</g>
<defs>
<clipPath id="clip0_133_1465">
<rect width="65" height="79" fill="white"/>
</clipPath>
</defs>
</svg>
