<svg width="83" height="67" viewBox="0 0 83 67" fill="none" xmlns="http://www.w3.org/2000/svg">
<g clip-path="url(#clip0_133_1453)">
<path d="M0 20.0904C0.156011 19.2744 0.312754 18.4577 0.470209 17.6403C2.14083 8.84856 9.35417 1.79031 18.1428 0.322472C21.0494 -0.165387 24.022 -0.0914725 26.9011 0.540252C26.8794 0.858211 26.6172 0.801584 26.4222 0.862562C21.9239 2.25853 18.1645 4.763 15.2977 8.54148C11.2891 13.827 9.92403 19.8007 11.0746 26.3101C11.8893 30.9205 14.1082 34.8471 17.3779 38.1617C21.0109 41.8466 24.657 45.5191 28.316 49.1792C28.5023 49.3687 28.6605 49.6148 28.9465 49.6692C28.9885 52.66 29.4525 55.6296 30.3246 58.4893C30.5413 59.1601 30.758 59.8287 31.0137 60.4885C31.0798 60.6496 31.0897 60.8285 31.0417 60.996C30.9938 61.1635 30.8907 61.3097 30.7494 61.4108C30.6082 61.5118 30.437 61.5618 30.2638 61.5525C30.0906 61.5432 29.9257 61.4753 29.7959 61.3597C29.5896 61.1839 29.3929 60.997 29.2066 60.8C21.8394 53.3751 14.4628 45.9517 7.07684 38.5298C3.20907 34.6598 0.756227 30.1082 0.143017 24.6115C0.143017 24.5157 0.049839 24.4285 0.00216894 24.3371L0 20.0904Z" fill="white"/>
<path d="M28.9572 49.6604C28.6712 49.595 28.5238 49.3598 28.3266 49.1704C24.6777 45.5015 21.0317 41.829 17.3886 38.1529C14.1188 34.8382 11.9 30.9117 11.0853 26.3013C9.9347 19.7918 11.302 13.8181 15.3084 8.5326C18.1751 4.75411 21.9345 2.24964 26.4329 0.853673C26.6279 0.792695 26.8901 0.853678 26.9117 0.531363C30.8878 1.44168 34.4089 3.22967 37.3969 6.04121C38.1467 6.74681 38.8942 7.4546 39.6396 8.16456C40.7967 9.27524 42.2398 9.28831 43.386 8.16456C45.2473 6.3461 47.113 4.53853 49.3816 3.21661C52.25 1.5264 55.4457 0.474086 58.7531 0.130656C63.0868 -0.324505 67.2037 0.376752 71.026 2.39557C77.5373 5.84303 81.5416 11.257 82.7008 18.6224C83.8276 25.783 81.8817 32.0768 76.9696 37.3776C72.5449 42.1513 67.8386 46.6485 63.2709 51.285C59.6379 54.9742 55.989 58.6496 52.3242 62.3112C52.1357 62.5028 51.9255 62.6727 51.7261 62.8513C51.7367 62.7438 51.7251 62.6353 51.6919 62.5326C51.6587 62.4299 51.6047 62.3352 51.5333 62.2546C50.8712 61.4345 50.2784 60.5603 49.7608 59.6412C48.6059 57.6311 47.7544 55.5034 47.5355 53.1753C47.43 52.2157 47.5516 51.2446 47.8905 50.3412C48.2294 49.4378 48.776 48.6276 49.4856 47.9769C50.9309 48.713 52.3242 48.7174 53.6589 47.6916C54.072 47.3404 54.4046 46.9036 54.634 46.4111C54.8853 45.8706 55.1682 45.3456 55.4812 44.8387C55.9384 44.1854 56.3479 43.6475 55.7109 42.8286C55.3729 42.393 55.7477 42.0533 56.2786 41.9575C57.414 41.7397 57.4422 41.7397 57.401 40.5702C57.3729 39.7753 57.5419 39.0066 57.6177 38.2291C57.7174 37.2425 58.1313 36.9071 59.1345 36.7329C60.1211 36.5868 61.088 36.3282 62.0163 35.962C63.0629 35.5264 63.2276 34.6967 62.4497 33.8648C60.7413 32.0287 59.5382 29.7769 58.959 27.3314C58.6517 26.2152 58.7933 25.0224 59.3533 24.0102C61.5202 20.1076 61.4378 16.0787 60.0034 11.9735C59.8474 11.5227 59.6025 11.1612 59.1171 11.1503C58.897 11.1468 58.6823 11.219 58.5086 11.3548C58.3348 11.4906 58.2124 11.682 58.1616 11.8973C56.8745 15.9371 53.7976 18.0888 50.1292 19.6024C47.8865 20.5279 45.503 21.0637 43.3189 22.1613C41.1759 23.2502 39.1564 24.4523 37.7198 26.4624C37.1153 27.3096 36.4197 27.2704 35.904 26.3448C35.5156 25.5688 35.0122 24.8565 34.4111 24.2324C33.1977 23.0651 31.7957 22.8865 30.3461 23.7663C28.942 24.6178 28.2031 25.9202 27.8348 27.4991C27.2129 30.1582 27.7806 32.5995 29.6181 34.505C30.7687 35.6963 30.8705 36.8418 30.565 38.2509C30.2508 39.7056 29.9496 41.1647 29.6419 42.6217C29.2271 44.5584 29.0165 46.5337 29.0135 48.5148C29.0049 48.9047 28.9572 49.2836 28.9572 49.6604Z" fill="white"/>
<path d="M49.4687 47.9878C48.7591 48.6385 48.2125 49.4486 47.8736 50.352C47.5347 51.2554 47.4131 52.2266 47.5186 53.1862C47.7353 55.5099 48.589 57.642 49.7439 59.6521C50.2615 60.5712 50.8543 61.4454 51.5164 62.2655C51.5878 62.3462 51.6418 62.4408 51.675 62.5435C51.7082 62.6462 51.7198 62.7547 51.7092 62.8622C50.6258 63.9642 49.5814 65.1053 48.459 66.1594C47.2932 67.2483 45.6248 67.2962 44.4764 66.2508C41.5382 63.5765 39.107 60.5167 37.6769 56.7491C37.0854 55.192 36.6542 53.5717 36.8708 51.8926C37.2392 49.0615 38.9271 47.2779 41.8155 46.557C44.5804 45.8601 47.0939 46.5657 49.4687 47.9878Z" fill="white"/>
</g>
<defs>
<clipPath id="clip0_133_1453">
<rect width="83" height="67" fill="white"/>
</clipPath>
</defs>
</svg>
