<svg xmlns="http://www.w3.org/2000/svg" version="1.1" xmlns:xlink="http://www.w3.org/1999/xlink" width="512" height="512" x="0" y="0" viewBox="0 0 512 512" style="enable-background:new 0 0 512 512" xml:space="preserve"><g><linearGradient id="b" x1="116.472" x2="485.395" y1="-12.805" y2="697.936" gradientUnits="userSpaceOnUse"><stop offset="0" stop-color="#fffcf8"></stop><stop offset=".188" stop-color="#faf8f6"></stop><stop offset=".404" stop-color="#eceef2"></stop><stop offset=".635" stop-color="#d5dcea"></stop><stop offset=".875" stop-color="#b5c4df"></stop><stop offset="1" stop-color="#a1b5d8"></stop></linearGradient><linearGradient id="a"><stop offset="0" stop-color="#a1b5d8" stop-opacity="0"></stop><stop offset=".309" stop-color="#90a2bd" stop-opacity=".31"></stop><stop offset=".755" stop-color="#7c8b9c" stop-opacity=".757"></stop><stop offset="1" stop-color="#748290"></stop></linearGradient><linearGradient xlink:href="#a" id="c" x1="196.373" x2="-671.016" y1="222.46" y2="-265.446" gradientUnits="userSpaceOnUse"></linearGradient><linearGradient xlink:href="#a" id="d" x1="256" x2="256" y1="451.966" y2="531.774" gradientUnits="userSpaceOnUse"></linearGradient><linearGradient xlink:href="#a" id="e" x1="339.204" x2="145.853" y1="407.381" y2="89.627" gradientUnits="userSpaceOnUse"></linearGradient><linearGradient id="f" x1="255.999" x2="255.999" y1="409.192" y2="102.812" gradientUnits="userSpaceOnUse"><stop offset="0" stop-color="#20b038"></stop><stop offset="1" stop-color="#60d66a"></stop></linearGradient><path fill="url(#b)" d="M420.422 503.234c-109.504 11.688-219.34 11.688-328.844 0-43.664-4.66-78.152-39.148-82.812-82.816-11.688-109.504-11.688-219.336 0-328.84 4.66-43.664 39.148-78.152 82.812-82.812 109.504-11.688 219.336-11.688 328.84 0 43.668 4.66 78.156 39.148 82.816 82.812 11.688 109.504 11.688 219.336 0 328.84-4.66 43.668-39.144 78.156-82.812 82.816zm0 0" opacity="1" data-original="url(#b)"></path><path fill="url(#a)" d="M475.387 110.098c-4.133-38.746-34.735-69.352-73.485-73.489-97.172-10.367-194.632-10.367-291.804 0-38.746 4.137-69.352 34.743-73.489 73.489-10.367 97.172-10.367 194.632 0 291.8 4.137 38.75 34.743 69.356 73.489 73.489 97.172 10.37 194.632 10.37 291.8 0 38.75-4.133 69.356-34.739 73.489-73.489 10.37-97.168 10.37-194.628 0-291.8zm0 0" opacity="1" data-original="url(#a)"></path><path fill="url(#a)" d="M7.672 409.805c.351 3.539.715 7.078 1.094 10.617 4.66 43.664 39.148 78.152 82.816 82.812 109.504 11.688 219.336 11.688 328.84 0 43.668-4.66 78.152-39.148 82.812-82.812.38-3.54.743-7.078 1.098-10.617zm0 0" opacity="1" data-original="url(#a)"></path><path fill="url(#a)" fill-rule="evenodd" d="M367.941 143.438c-29.703-29.723-68.195-44.094-110.277-44.114a155.792 155.792 0 0 0-156.309 156.25c-.011 27.719 9.239 53.77 23.004 77.617l-26.336 81.493 96.079 96.074c75.453 3.027 150.96.52 226.32-7.524 43.668-4.66 78.152-39.148 82.812-82.816 4.739-44.371 7.551-88.8 8.45-133.238zm0 0" opacity="1" data-original="url(#a)"></path><path fill="url(#f)" d="m103.496 409.191 21.547-78.671c-13.293-23.024-20.281-49.145-20.273-75.899.035-83.707 68.16-151.809 151.867-151.809 40.625.02 78.758 15.829 107.425 44.524 28.676 28.7 44.458 66.84 44.442 107.406-.035 83.707-68.168 151.817-151.863 151.817-.004 0 .004 0 0 0h-.067c-25.414-.008-50.386-6.387-72.57-18.477zm0 0" opacity="1" data-original="url(#f)"></path><g fill="#fff" fill-rule="evenodd"><path d="M367.941 143.438c-29.703-29.723-69.199-46.102-111.28-46.122-86.712 0-157.278 70.543-157.313 157.254-.012 27.72 7.23 54.774 20.996 78.621l-22.32 81.493 83.394-21.868c22.98 12.532 48.848 19.133 75.176 19.145h.066c86.7 0 157.277-70.559 157.313-157.266.015-42.02-16.332-81.53-46.032-111.257zm-111.28 241.964h-.052c-23.464-.015-46.476-6.316-66.546-18.226l-4.778-2.832-49.488 12.976 13.21-48.234-3.112-4.945c-13.09-20.813-20-44.864-19.989-69.559.028-72.07 58.68-130.703 130.805-130.703 34.926.012 67.75 13.629 92.441 38.332 24.688 24.707 38.27 57.547 38.262 92.476-.031 72.07-58.687 130.715-130.754 130.715zm0 0" fill="#ffffff" opacity="1" data-original="#ffffff"></path><path d="M328.379 287.504c-3.93-1.965-23.254-11.477-26.86-12.79-3.601-1.308-6.222-1.964-8.843 1.973-2.621 3.93-10.153 12.782-12.446 15.403-2.293 2.625-4.585 2.953-8.515.988-3.93-1.973-16.59-6.117-31.61-19.508-11.683-10.418-19.574-23.285-21.867-27.218-2.293-3.934-.246-6.063 1.727-8.024 1.762-1.758 3.93-4.586 5.894-6.883 1.961-2.293 2.618-3.933 3.93-6.554 1.309-2.625.652-4.918-.328-6.883-.984-1.969-8.621-21.406-12.117-29.18-2.946-6.543-6.047-6.676-8.848-6.789-2.289-.098-4.914-.094-7.531-.094-2.621 0-6.88.985-10.48 4.918-3.606 3.934-13.762 13.442-13.762 32.782 0 19.34 14.09 38.027 16.05 40.652 1.97 2.621 27.196 43.574 67.149 59.332 33.203 13.094 39.96 10.488 47.168 9.832 7.207-.656 23.254-9.504 26.531-18.684 3.274-9.175 3.274-17.043 2.293-18.687-.984-1.637-3.605-2.621-7.535-4.586zm0 0" fill="#ffffff" opacity="1" data-original="#ffffff"></path></g></g></svg>