<svg width="43" height="43" viewBox="0 0 43 43" fill="none" xmlns="http://www.w3.org/2000/svg">
<g clip-path="url(#clip0_133_9310)">
<path d="M21.5 43C33.3741 43 43 33.3741 43 21.5C43 9.62588 33.3741 0 21.5 0C9.62588 0 0 9.62588 0 21.5C0 33.3741 9.62588 43 21.5 43Z" fill="black"/>
<path d="M20.2954 24.7329L17.3234 28.1239C16.2241 29.3811 15.133 30.6464 14.0134 31.8834C13.8251 32.0719 13.5747 32.1855 13.3089 32.2033C12.2805 32.2377 11.252 32.2174 10.1163 32.2174L18.607 22.4999L9.6709 10.8065C9.90776 10.7923 10.0556 10.7741 10.2033 10.7741C12.3655 10.7741 14.5276 10.7741 16.6817 10.764C16.8274 10.7543 16.9729 10.7842 17.103 10.8505C17.2331 10.9168 17.3428 11.017 17.4206 11.1405C18.9592 13.1934 20.5046 15.2401 22.0567 17.2808C22.1296 17.378 22.2085 17.4691 22.3239 17.6128C23.1337 16.6856 23.9313 15.7908 24.7229 14.8777C25.8222 13.6205 26.9094 12.3552 28.0289 11.1142C28.2159 10.9241 28.4655 10.8083 28.7314 10.7883C29.7598 10.7539 30.7903 10.7741 31.9361 10.7741L23.9982 19.8519L33.331 32.1931C33.084 32.2053 32.9261 32.2174 32.7844 32.2174C30.6931 32.2174 28.6018 32.2073 26.5085 32.2174C26.3549 32.225 26.2021 32.1915 26.0658 32.1203C25.9295 32.0491 25.8147 31.9429 25.7331 31.8125C24.069 29.6139 22.3887 27.4275 20.7124 25.237C20.5869 25.0912 20.4553 24.9333 20.2954 24.7329ZM13.9264 12.8168C13.9584 12.8938 13.9949 12.9688 14.0357 13.0415C18.3114 18.6372 22.5891 24.2308 26.8689 29.8225C26.9442 29.9359 27.0589 30.0174 27.1908 30.0512C27.7799 30.0735 28.371 30.0613 28.9946 30.0613C28.9776 29.9915 28.9531 29.9236 28.9217 29.8589C24.6865 24.2551 20.4486 18.6541 16.2079 13.0557C16.1169 12.9348 15.9828 12.8536 15.8334 12.829C15.2241 12.8026 14.6147 12.8168 13.9264 12.8168Z" fill="white"/>
</g>
<defs>
<clipPath id="clip0_133_9310">
<rect width="43" height="43" fill="white"/>
</clipPath>
</defs>
</svg>
