<svg width="209" height="187" viewBox="0 0 209 187" fill="none" xmlns="http://www.w3.org/2000/svg">
<path d="M4.76473 68.1414C4.7665 68.197 4.79182 68.2424 4.79771 68.2977C4.84307 68.723 5.00682 69.1011 5.25921 69.4262C5.28837 69.464 5.27895 69.5157 5.31076 69.5523L103.023 181.669C103.124 181.786 103.269 181.847 103.39 181.941C103.487 182.016 103.566 182.09 103.673 182.15C104.039 182.356 104.44 182.5 104.875 182.5C105.31 182.5 105.711 182.356 106.077 182.15C106.184 182.09 106.263 182.016 106.36 181.941C106.481 181.847 106.626 181.786 106.727 181.669L204.439 69.5523C204.471 69.5157 204.462 69.464 204.491 69.4262C204.743 69.1011 204.907 68.723 204.952 68.2977C204.958 68.2424 204.983 68.197 204.985 68.1414C204.986 68.1169 205 68.0963 205 68.0714C205 67.6369 204.842 67.2534 204.624 66.906C204.599 66.8648 204.614 66.8134 204.585 66.7734L161.158 5.51362C160.705 4.87926 159.961 4.5 159.16 4.5H124.112C124.11 4.5 124.108 4.5 124.106 4.5H85.6442C85.6421 4.5 85.6401 4.5 85.638 4.5H50.5904C49.7893 4.5 49.0448 4.87926 48.5924 5.51362L5.16468 66.7734C5.1364 66.8134 5.15113 66.8648 5.1258 66.906C4.90845 67.2534 4.75 67.6369 4.75 68.0714C4.75 68.0963 4.76385 68.1169 4.76473 68.1414ZM55.0092 70.3831L96.6554 167.149L12.3237 70.3831H55.0092ZM122.623 9.12338L149.389 65.7597H60.3641L87.1274 9.12338H122.623ZM197.426 70.3831L113.095 167.149L137.606 110.197C138.115 109.018 137.531 107.666 136.296 107.178C135.066 106.7 133.652 107.255 133.148 108.436L104.875 174.125L60.2277 70.3831H197.426ZM198.031 65.7597H154.682L127.915 9.12338H157.883L198.031 65.7597ZM51.8674 9.12338H81.8352L55.0684 65.7597H11.7194L51.8674 9.12338Z" fill="url(#paint0_linear_133_9252)"/>
<path fill-rule="evenodd" clip-rule="evenodd" d="M2.28867 72.1729C2.05482 71.9032 1.88238 71.6332 1.75486 71.3895C1.31673 70.7005 0.999162 69.9072 0.861114 69.0313C0.859084 69.022 0.85706 69.0125 0.855049 69.0029C0.847255 68.9658 0.839345 68.9257 0.831612 68.8828C0.790243 68.679 0.75 68.4013 0.75 68.0714C0.75 66.9204 1.08932 65.9749 1.45259 65.2771C1.55458 65.0277 1.69672 64.7502 1.89637 64.4673L1.90146 64.46L45.3357 3.19115C46.5585 1.47638 48.5309 0.5 50.5904 0.5H159.16C161.219 0.5 163.191 1.47636 164.414 3.19116L164.421 3.20029L207.854 64.4683C208.054 64.751 208.196 65.0281 208.297 65.2771C208.661 65.975 209 66.9204 209 68.0714C209 68.4016 208.96 68.6795 208.918 68.8833C208.911 68.9258 208.903 68.9656 208.895 69.0024C208.893 69.0121 208.891 69.0217 208.889 69.0311C208.751 69.907 208.433 70.7004 207.995 71.3894C207.868 71.6329 207.695 71.9027 207.462 72.1722L207.455 72.1804L109.746 184.294C109.745 184.294 109.745 184.295 109.744 184.295C109.318 184.785 108.875 185.074 108.731 185.167C108.716 185.179 108.701 185.191 108.685 185.203C108.554 185.306 108.331 185.472 108.035 185.638C107.289 186.057 106.21 186.5 104.875 186.5C103.539 186.5 102.458 186.056 101.712 185.636C101.418 185.471 101.196 185.306 101.065 185.203C101.049 185.191 101.034 185.179 101.019 185.167C100.876 185.074 100.432 184.785 100.006 184.295L100.008 184.297L103.022 181.671L100.004 184.294M103.39 181.941C103.414 181.959 103.437 181.978 103.459 181.996C103.527 182.052 103.592 182.105 103.673 182.15C103.796 182.219 103.923 182.281 104.053 182.333C104.312 182.437 104.586 182.5 104.875 182.5C105.164 182.5 105.438 182.437 105.697 182.333C105.827 182.281 105.954 182.219 106.077 182.15C106.158 182.105 106.223 182.052 106.291 181.996C106.313 181.978 106.336 181.959 106.36 181.941C106.404 181.906 106.452 181.876 106.499 181.846C106.581 181.795 106.663 181.743 106.727 181.669L204.439 69.5523C204.456 69.5334 204.461 69.5104 204.467 69.4875C204.472 69.466 204.477 69.4445 204.491 69.4262C204.692 69.1666 204.837 68.8731 204.911 68.5487C204.929 68.467 204.943 68.3833 204.952 68.2977C204.955 68.2725 204.962 68.2493 204.968 68.2262C204.976 68.1988 204.984 68.1716 204.985 68.1414C204.986 68.1211 204.996 68.1036 204.999 68.0841C205 68.08 205 68.0758 205 68.0714C205 67.9801 204.993 67.8909 204.98 67.8039C204.931 67.4772 204.796 67.1803 204.624 66.906C204.612 66.8861 204.609 66.8639 204.606 66.8417C204.603 66.8179 204.6 66.7941 204.585 66.7734L161.158 5.51362C160.705 4.87926 159.961 4.5 159.16 4.5H50.5904C49.7893 4.5 49.0448 4.87926 48.5924 5.51362L5.16468 66.7734C5.15003 66.7941 5.14692 66.8179 5.14381 66.8417C5.14091 66.8639 5.13801 66.8861 5.1258 66.906C4.95415 67.1803 4.81923 67.4772 4.77009 67.8039C4.757 67.8909 4.75 67.9801 4.75 68.0714C4.75 68.0843 4.75369 68.0959 4.75739 68.1076C4.76084 68.1186 4.7643 68.1295 4.76473 68.1414C4.76569 68.1716 4.7736 68.1988 4.78156 68.2262C4.78827 68.2493 4.79502 68.2725 4.79771 68.2977C4.80684 68.3833 4.82077 68.467 4.83924 68.5487C4.91258 68.8731 5.05762 69.1666 5.25921 69.4262C5.2733 69.4445 5.27838 69.466 5.28346 69.4874C5.28889 69.5104 5.29432 69.5334 5.31076 69.5523L103.023 181.669C103.087 181.743 103.169 181.795 103.251 181.846C103.298 181.876 103.346 181.906 103.39 181.941ZM104.875 174.125L133.148 108.436C133.652 107.255 135.066 106.7 136.296 107.178C137.531 107.666 138.115 109.018 137.606 110.197L113.095 167.149L197.426 70.3831H60.2277L104.875 174.125ZM198.031 65.7597L157.883 9.12338H127.915L154.682 65.7597H198.031ZM190.292 61.7597L155.815 13.1234H134.229L157.215 61.7597H190.292ZM12.3237 70.3831L96.6554 167.149L55.0092 70.3831H12.3237ZM52.376 74.3831H21.1156L82.8753 145.249L52.376 74.3831ZM60.3641 65.7597L87.1274 9.12338H122.623L149.389 65.7597H60.3641ZM143.075 61.7597H66.6784L89.6613 13.1234H120.089L143.075 61.7597ZM81.8352 9.12338H51.8674L11.7194 65.7597H55.0684L81.8352 9.12338ZM52.5346 61.7597L75.5206 13.1234H53.9349L19.4579 61.7597H52.5346ZM66.3039 74.3831H188.634L126.875 145.249L141.278 111.782C141.279 111.781 141.28 111.779 141.28 111.778M66.3039 74.3831L104.875 164.007L129.47 106.865" fill="url(#paint1_linear_133_9252)"/>
<path d="M143.572 90.2787C143.874 90.3961 144.185 90.4525 144.491 90.4525C145.438 90.4525 146.338 89.9152 146.72 89.0213L151.272 78.4448C151.781 77.2664 151.197 75.9142 149.962 75.4265C148.727 74.9479 147.323 75.501 146.814 76.684L142.262 87.2604C141.753 88.4388 142.338 89.7911 143.572 90.2787Z" fill="url(#paint2_linear_133_9252)"/>
<path fill-rule="evenodd" clip-rule="evenodd" d="M142.112 94.0026L142.103 93.9989C138.881 92.7262 137.141 89.0379 138.588 85.679C138.589 85.6786 138.589 85.6781 138.589 85.6776C138.589 85.6766 138.59 85.6755 138.59 85.6744L143.14 75.1031C143.14 75.1029 143.14 75.1028 143.14 75.1026C144.555 71.8163 148.298 70.4912 151.408 71.6969L151.42 71.7015L151.432 71.7061C154.655 72.9791 156.395 76.6685 154.946 80.0279C154.945 80.0288 154.945 80.0297 154.944 80.0306L150.396 90.5986C149.329 93.0892 146.895 94.4524 144.491 94.4524C143.692 94.4524 142.888 94.3047 142.122 94.0062L142.112 94.0026ZM146.72 89.0212L151.272 78.4448C151.781 77.2663 151.197 75.9141 149.962 75.4265C148.728 74.9479 147.323 75.501 146.814 76.6839L142.262 87.2603C141.754 88.4387 142.338 89.791 143.572 90.2786C143.874 90.396 144.185 90.4524 144.491 90.4524C145.439 90.4524 146.339 89.9152 146.72 89.0212Z" fill="url(#paint3_linear_133_9252)"/>
<defs>
<linearGradient id="paint0_linear_133_9252" x1="52.518" y1="-8.75336" x2="143.926" y2="184.84" gradientUnits="userSpaceOnUse">
<stop stop-color="#FB8983"/>
<stop offset="0.485" stop-color="#8C3488"/>
<stop offset="1" stop-color="#135CCA"/>
</linearGradient>
<linearGradient id="paint1_linear_133_9252" x1="50.4263" y1="-13.349" x2="146.233" y2="188.591" gradientUnits="userSpaceOnUse">
<stop stop-color="#FB8983"/>
<stop offset="0.485" stop-color="#8C3488"/>
<stop offset="1" stop-color="#135CCA"/>
</linearGradient>
<linearGradient id="paint2_linear_133_9252" x1="144.315" y1="74.123" x2="154.31" y2="85.7327" gradientUnits="userSpaceOnUse">
<stop stop-color="#FB8983"/>
<stop offset="0.485" stop-color="#8C3488"/>
<stop offset="1" stop-color="#135CCA"/>
</linearGradient>
<linearGradient id="paint3_linear_133_9252" x1="142.221" y1="69.5311" x2="156.774" y2="90.0698" gradientUnits="userSpaceOnUse">
<stop stop-color="#FB8983"/>
<stop offset="0.485" stop-color="#8C3488"/>
<stop offset="1" stop-color="#135CCA"/>
</linearGradient>
</defs>
</svg>
